<?xml version="1.0" encoding="UTF-8" standalone="no" ?>
<!DOCTYPE svg PUBLIC "-//W3C//DTD SVG 1.1//EN" "http://www.w3.org/Graphics/SVG/1.1/DTD/svg11.dtd">
<svg xmlns="http://www.w3.org/2000/svg" xmlns:xlink="http://www.w3.org/1999/xlink" version="1.1" width="1080" height="1080" viewBox="0 0 1080 1080" xml:space="preserve">
<desc>Created with Fabric.js 5.2.4</desc>
<defs>
</defs>
<g transform="matrix(1 0 0 1 540 540)" id="944ef602-31be-4e90-a001-1380a04963db"  >
</g>
<g transform="matrix(1 0 0 1 540 540)" id="8148323e-631b-4b2f-82f9-880795f63636"  >
<rect style="stroke: none; stroke-width: 1; stroke-dasharray: none; stroke-linecap: butt; stroke-dashoffset: 0; stroke-linejoin: miter; stroke-miterlimit: 4; fill: rgb(255,255,255); fill-rule: nonzero; opacity: 1; visibility: hidden;" vector-effect="non-scaling-stroke"  x="-540" y="-540" rx="0" ry="0" width="1080" height="1080" />
</g>
<g transform="matrix(1 0 0 1 540 540)"  >
<g style="" vector-effect="non-scaling-stroke"   >
		<g transform="matrix(1 0 0 1 -39.34 0.01)"  >
<path style="stroke: none; stroke-width: 1; stroke-dasharray: none; stroke-linecap: butt; stroke-dashoffset: 0; stroke-linejoin: miter; stroke-miterlimit: 4; fill: rgb(255,255,255); fill-rule: nonzero; opacity: 1;" vector-effect="non-scaling-stroke"  transform=" translate(-1142.98, -443.49)" d="M 1147.159 447.86 C 1144.7473283506508 450.1662527204107 1140.922821950673 450.08124068722765 1138.6160095406724 447.67010438669547 C 1136.3091971306717 445.25896808616335 1136.393321489316 441.4344420578118 1138.8039223111407 439.12707008249123 C 1141.2145231329655 436.8196981071707 1145.03906858366 436.90293478674386 1147.3470000000002 439.313 C 1148.4609816255784 440.4685547794126 1149.0676492770267 442.0209530228136 1149.0323525760496 443.62563867840146 C 1148.9970558750726 445.23032433398936 1148.3227148358164 446.7545454820525 1147.159 447.86 M 1148.891 437.836 C 1145.7674570772344 434.57388050255946 1140.5910498168419 434.4609554898721 1137.3282178223224 437.5837541355554 C 1134.065385827803 440.7065527812387 1133.9512799108102 445.88293414505307 1137.0733341168868 449.1464784668388 C 1140.1953883229635 452.4100227886245 1145.3717435207973 452.5253096039843 1148.636 449.404 C 1151.8968971067118 446.2782702096028 1152.0109920347375 441.1023873570527 1148.891 437.836" stroke-linecap="round" />
</g>
		<g transform="matrix(1 0 0 1 -39.34 0)"  >
<path style="stroke: none; stroke-width: 1; stroke-dasharray: none; stroke-linecap: butt; stroke-dashoffset: 0; stroke-linejoin: miter; stroke-miterlimit: 4; fill: rgb(255,255,255); fill-rule: nonzero; opacity: 1;" vector-effect="non-scaling-stroke"  transform=" translate(-1111, -411.51)" d="M 1125.422 427.689 C 1124.5276406518215 428.4844328158341 1123.5690415130105 429.2045528248573 1122.556 429.84200000000004 C 1121.8400000000001 427.27500000000003 1122.582 424.44900000000007 1124.779 421.42400000000004 C 1124.795 421.401 1124.811 421.37800000000004 1124.825 421.35400000000004 C 1127.6757716611835 417.4040454613018 1128.801337506531 412.4662072240817 1127.944 407.67100000000005 C 1128.244 406.9560000000001 1128.538 406.22400000000005 1128.824 405.47100000000006 C 1129.3680000000002 404.03700000000003 1129.824 402.6840000000001 1130.202 401.48100000000005 C 1134.7898856091133 410.2826265649681 1132.821122320613 421.0752049017809 1125.421 427.69000000000005 M 1115 432.8 C 1114.991 432.776 1114.986 432.75100000000003 1114.974 432.72700000000003 C 1113.048 428.67 1115.609 424.045 1115.635 423.99800000000005 C 1115.646 423.97800000000007 1115.657 423.958 1115.667 423.93700000000007 L 1115.797 423.66800000000006 C 1117.1867271197082 422.7641011664482 1118.4920236522798 421.7365985113213 1119.6970000000001 420.59800000000007 C 1122.3267254653583 417.96324310540626 1124.502134638373 414.9113177169832 1126.1350000000002 411.5660000000001 C 1126.003321309848 414.6686228643552 1124.9486434123241 417.66134538968316 1123.1060000000002 420.1610000000001 C 1123.079722578192 420.1954285653149 1123.0556735134414 420.23150216244073 1123.0340000000003 420.2690000000001 C 1120.3430000000003 424.0070000000001 1119.5570000000002 427.57600000000014 1120.6910000000003 430.8900000000001 C 1118.8923943613474 431.7890444891088 1116.9768155888567 432.43194651958794 1115 432.8 M 1113.422 422.68600000000004 Q 1112.708 423.112 1111.973 423.50600000000003 L 1111.935 423.52700000000004 Q 1111.2 423.922 1110.451 424.285 L 1110.428 424.29600000000005 C 1108.6435720949248 425.1557809601211 1106.813131776376 425.91660049066513 1104.9450000000002 426.57500000000005 L 1104.9450000000002 426.57500000000005 L 1104.9360000000001 426.57500000000005 L 1104.4420000000002 426.74800000000005 L 1104.3270000000002 426.78700000000003 L 1103.9520000000002 426.915 L 1103.7870000000003 426.97 L 1103.4700000000003 427.07500000000005 L 1103.2850000000003 427.13500000000005 L 1102.9910000000002 427.23500000000007 L 1102.8050000000003 427.2940000000001 L 1102.5200000000002 427.38400000000007 L 1102.3360000000002 427.4410000000001 L 1102.0530000000003 427.5280000000001 L 1101.8770000000004 427.5810000000001 L 1101.5890000000004 427.6670000000001 L 1101.4280000000003 427.7150000000001 L 1101.1280000000004 427.8030000000001 L 1100.9880000000003 427.8440000000001 L 1100.6660000000004 427.9350000000001 L 1100.5580000000004 427.9660000000001 L 1100.1820000000005 428.06600000000014 L 1100.1400000000006 428.07800000000015 C 1099.4230000000005 428.27800000000013 1098.7560000000005 428.4470000000002 1098.1490000000006 428.59500000000014 L 1098.1360000000006 428.59500000000014 L 1097.7900000000006 428.67900000000014 L 1097.7900000000006 428.67900000000014 C 1096.6310000000005 428.95500000000015 1095.7300000000007 429.14000000000016 1095.1970000000006 429.24200000000013 L 1095.1300000000006 429.2550000000001 L 1095.0730000000005 429.26600000000013 L 1094.9660000000006 429.2860000000001 L 1094.9350000000006 429.2920000000001 L 1094.8650000000007 429.30500000000006 L 1094.8420000000008 429.30500000000006 L 1094.7790000000007 429.3160000000001 L 1094.7710000000006 429.3160000000001 L 1094.7140000000006 429.3260000000001 L 1094.7140000000006 429.3260000000001 L 1094.6550000000007 429.33600000000007 C 1094.5860000000007 429.3470000000001 1094.5200000000007 429.35400000000004 1094.4550000000006 429.36100000000005 C 1094.4210000000005 429.36100000000005 1094.3850000000007 429.37100000000004 1094.3550000000007 429.374 C 1094.3250000000007 429.377 1094.2860000000007 429.374 1094.2550000000008 429.374 C 1094.193000000001 429.374 1094.1310000000008 429.382 1094.0720000000008 429.382 L 1094.0720000000008 429.382 C 1093.9890000000007 429.382 1093.9080000000008 429.382 1093.8310000000008 429.371 L 1093.7620000000009 429.363 C 1093.7050000000008 429.356 1093.6510000000007 429.348 1093.597000000001 429.338 L 1093.5320000000008 429.32500000000005 C 1093.4642924571067 429.31027309012217 1093.3975103311052 429.2915740948418 1093.3320000000008 429.26900000000006 L 1093.3320000000008 429.26900000000006 C 1093.2693897635609 429.2469530004788 1093.2082634187957 429.22089914861175 1093.1490000000008 429.1910000000001 L 1093.0990000000008 429.1640000000001 C 1093.057563268818 429.14174291634544 1093.0174920102033 429.11703230686635 1092.979000000001 429.0900000000001 C 1092.9640000000009 429.0800000000001 1092.948000000001 429.0690000000001 1092.9340000000009 429.0580000000001 C 1092.8845310627103 429.02141677715025 1092.8380510887691 428.98095579264026 1092.795000000001 428.9370000000001 C 1092.3911384597704 428.39502322137116 1092.275204092287 427.69084309218687 1092.484000000001 427.0480000000001 C 1092.484000000001 427.0380000000001 1092.5000000000011 426.9710000000001 1092.526000000001 426.8560000000001 L 1092.526000000001 426.8420000000001 C 1092.531000000001 426.8190000000001 1092.537000000001 426.7930000000001 1092.543000000001 426.7670000000001 L 1092.5490000000011 426.7390000000001 C 1092.5490000000011 426.7220000000001 1092.5580000000011 426.7020000000001 1092.562000000001 426.6840000000001 C 1092.676000000001 426.19200000000006 1092.911000000001 425.2270000000001 1093.278000000001 423.94200000000006 L 1093.285000000001 423.91800000000006 L 1093.368000000001 423.6290000000001 L 1093.3850000000011 423.5710000000001 L 1093.485000000001 423.24700000000007 C 1093.485000000001 423.23600000000005 1093.4910000000011 423.22400000000005 1093.495000000001 423.2130000000001 C 1093.642000000001 422.71900000000005 1093.805000000001 422.1880000000001 1093.985000000001 421.62700000000007 L 1094.011000000001 421.54800000000006 Q 1094.0640000000012 421.3810000000001 1094.120000000001 421.21200000000005 L 1094.158000000001 421.09800000000007 C 1094.1920000000011 420.99800000000005 1094.227000000001 420.89000000000004 1094.258000000001 420.7850000000001 L 1094.303000000001 420.6520000000001 L 1094.403000000001 420.3520000000001 L 1094.456000000001 420.1980000000001 L 1094.556000000001 419.9080000000001 L 1094.614000000001 419.74300000000005 C 1094.648000000001 419.64300000000003 1094.682000000001 419.55000000000007 1094.7140000000009 419.45300000000003 C 1094.7340000000008 419.39700000000005 1094.7540000000008 419.341 1094.7740000000008 419.285 L 1094.8830000000007 418.985 L 1094.9440000000006 418.819 Q 1095.0010000000007 418.66400000000004 1095.0610000000006 418.507 L 1095.1200000000006 418.348 L 1095.2530000000006 417.999 L 1095.3010000000006 417.874 C 1095.3570000000007 417.72900000000004 1095.4140000000007 417.58200000000005 1095.4720000000007 417.435 L 1095.4890000000007 417.391 Q 1095.5890000000006 417.144 1095.6890000000008 416.891 L 1095.6890000000008 416.891 C 1096.4288232044023 415.05372952779925 1097.2694335940337 413.25866913659684 1098.2070000000008 411.514 L 1098.2190000000007 411.492 Q 1098.6190000000008 410.75800000000004 1099.0450000000008 410.03700000000003 L 1099.0630000000008 410.00700000000006 Q 1099.4920000000009 409.28700000000003 1099.9520000000007 408.58700000000005 L 1099.9640000000006 408.56800000000004 Q 1100.1960000000006 408.21600000000007 1100.4360000000006 407.86800000000005 C 1101.1773040202308 406.79371379405995 1101.9940285680225 405.77347646001425 1102.8800000000006 404.81500000000005 L 1102.8800000000006 404.81500000000005 Q 1103.0800000000006 404.59800000000007 1103.2890000000007 404.38700000000006 L 1103.3220000000006 404.35400000000004 C 1103.4650000000006 404.20900000000006 1103.6100000000006 404.06500000000005 1103.7570000000005 403.92400000000004 C 1103.9390000000005 403.75000000000006 1104.1270000000004 403.579 1104.3160000000005 403.40900000000005 L 1104.4290000000005 403.309 Q 1104.7070000000006 403.065 1104.9940000000006 402.82800000000003 L 1105.1010000000006 402.74100000000004 Q 1105.3780000000006 402.51500000000004 1105.6630000000005 402.29600000000005 L 1105.7220000000004 402.25000000000006 Q 1106.0220000000004 402.01900000000006 1106.3380000000004 401.7950000000001 L 1106.4680000000005 401.70200000000006 Q 1106.7790000000005 401.48100000000005 1107.0960000000005 401.26700000000005 L 1107.1860000000004 401.208 Q 1107.4860000000003 401.00800000000004 1107.7960000000003 400.80800000000005 L 1107.8880000000004 400.749 Q 1108.2170000000003 400.54200000000003 1108.5520000000004 400.34200000000004 L 1108.6820000000005 400.26500000000004 Q 1109.0230000000004 400.06500000000005 1109.3690000000004 399.86500000000007 L 1109.4000000000003 399.84800000000007 Q 1109.7430000000004 399.6550000000001 1110.0890000000004 399.4700000000001 L 1110.1890000000003 399.4150000000001 Q 1110.5400000000004 399.22800000000007 1110.8890000000004 399.0490000000001 L 1110.9960000000003 398.9950000000001 Q 1111.7280000000003 398.6260000000001 1112.4690000000003 398.2860000000001 L 1112.5640000000003 398.24200000000013 Q 1112.9330000000002 398.07300000000015 1113.3030000000003 397.9110000000001 L 1113.3600000000004 397.88600000000014 Q 1114.1230000000003 397.5530000000001 1114.8820000000003 397.2500000000001 L 1114.9550000000004 397.2210000000001 C 1117.560550337784 396.1935363478219 1120.227745166099 395.32985417576793 1122.9410000000005 394.6350000000001 L 1122.9410000000005 394.6350000000001 Q 1123.2710000000004 394.5490000000001 1123.5820000000006 394.4720000000001 L 1123.6050000000005 394.4660000000001 Q 1123.9140000000004 394.3890000000001 1124.2050000000004 394.32100000000014 L 1124.2050000000004 394.32100000000014 C 1126.0930000000003 393.8700000000001 1127.2990000000004 393.66600000000017 1127.3410000000003 393.65900000000016 Q 1127.4980000000003 393.63300000000015 1127.6410000000003 393.62100000000015 C 1127.6840000000002 393.62100000000015 1127.7240000000004 393.62100000000015 1127.7660000000003 393.61600000000016 C 1127.8080000000002 393.61100000000016 1127.8760000000002 393.60900000000015 1127.9290000000003 393.60900000000015 C 1128.0120000000004 393.60900000000015 1128.0930000000003 393.60900000000015 1128.1710000000003 393.6200000000002 L 1128.2390000000003 393.62800000000016 C 1128.2960000000003 393.63500000000016 1128.3510000000003 393.64300000000014 1128.4040000000002 393.65300000000013 L 1128.4690000000003 393.6660000000001 C 1128.5366231910564 393.680658469472 1128.6033903819252 393.6990194469609 1128.6690000000003 393.7210000000001 L 1128.6690000000003 393.7210000000001 C 1128.731284176532 393.7430507303909 1128.7920776252126 393.76910506553975 1128.8510000000003 393.7990000000001 L 1128.9020000000003 393.8270000000001 C 1128.9430210302362 393.849053294241 1128.9827520947574 393.87342613214054 1129.0210000000002 393.9000000000001 C 1129.0370000000003 393.9100000000001 1129.053 393.9210000000001 1129.0670000000002 393.9320000000001 C 1129.1157384130624 393.9683509493751 1129.161545981425 394.00847436691913 1129.2040000000002 394.0520000000001 L 1129.2040000000002 394.0520000000001 C 1129.6081796028343 394.59384158709287 1129.724140523277 395.2981829977562 1129.515 395.9410000000001 C 1129.505 395.9880000000001 1129.1930000000002 397.4410000000001 1128.5400000000002 399.65600000000006 L 1128.5400000000002 399.6650000000001 C 1127.6902152133416 402.56483893899616 1126.6472156705947 405.40452379272733 1125.4180000000001 408.1650000000001 L 1125.38 408.25000000000006 Q 1125.2150000000001 408.61600000000004 1125.0430000000001 408.9820000000001 L 1125.0310000000002 409.0060000000001 Q 1124.861 409.3670000000001 1124.6840000000002 409.72800000000007 L 1124.6530000000002 409.7920000000001 Q 1124.4780000000003 410.1490000000001 1124.2950000000003 410.5060000000001 L 1124.2410000000002 410.6110000000001 Q 1123.8720000000003 411.3290000000001 1123.4740000000002 412.0390000000001 L 1123.4120000000003 412.1490000000001 Q 1123.2190000000003 412.4910000000001 1123.0190000000002 412.8300000000001 L 1122.9530000000002 412.9410000000001 Q 1122.7530000000002 413.2770000000001 1122.553 413.6090000000001 L 1122.535 413.6380000000001 Q 1122.326 413.9740000000001 1122.1090000000002 414.30500000000006 L 1122.0240000000001 414.43500000000006 Q 1121.8100000000002 414.75900000000007 1121.5900000000001 415.07700000000006 L 1121.5230000000001 415.17100000000005 Q 1121.316 415.47100000000006 1121.101 415.761 L 1121.0390000000002 415.84700000000004 Q 1120.8120000000001 416.15500000000003 1120.5770000000002 416.45500000000004 L 1120.4770000000003 416.583 C 1120.3180000000002 416.783 1120.1590000000003 416.983 1119.9950000000003 417.17800000000005 L 1119.9440000000004 417.23800000000006 Q 1119.7130000000004 417.51200000000006 1119.4760000000003 417.7780000000001 L 1119.3840000000002 417.8780000000001 Q 1119.1350000000002 418.1550000000001 1118.8840000000002 418.4210000000001 L 1118.7770000000003 418.5310000000001 C 1118.6000000000004 418.71300000000014 1118.4210000000003 418.89300000000014 1118.2390000000003 419.0680000000001 L 1118.2390000000003 419.0680000000001 C 1118.0930000000003 419.2080000000001 1117.9390000000003 419.3460000000001 1117.7910000000002 419.4830000000001 L 1117.756 419.5140000000001 C 1116.420901183987 420.69580660254013 1114.9748650142521 421.74600795230583 1113.438 422.65000000000015 L 1113.412 422.66600000000017 M 1111.0040000000001 433.15000000000015 C 1109.5054630926002 433.1495884071752 1108.0109389775473 432.995109569274 1106.544 432.68900000000014 C 1106.4940000000001 432.5170000000001 1106.4440000000002 432.34500000000014 1106.382 432.1750000000001 C 1106.1515450191866 430.8449814989306 1106.2198619020512 429.4803517637098 1106.582 428.1800000000001 C 1108.7071924257837 427.3975406357787 1110.7783693222057 426.4755328560811 1112.7820000000002 425.42000000000013 C 1111.9304716247275 427.9024637485807 1111.9516381689377 430.60119813539075 1112.842 433.0700000000001 Q 1111.923 433.1480000000001 1111.0010000000002 433.1500000000001 M 1104.2470000000003 432.0770000000001 C 1102.8076855483334 431.6085298308771 1101.4217087236175 430.98978419159647 1100.1120000000003 430.2310000000001 C 1101.3330000000003 429.9060000000001 1102.7120000000002 429.5070000000001 1104.1700000000003 429.0250000000001 L 1104.2870000000003 428.98500000000007 C 1104.1300018911127 430.00879641043105 1104.116538910111 431.0494848418488 1104.2470000000003 432.07700000000006 M 1090.1130000000003 417.32400000000007 C 1090.7361639230849 417.4350070873435 1091.368029019249 417.48989367408655 1092.0010000000002 417.48800000000006 C 1092.4064963283633 417.48749570028866 1092.8116983257667 417.4661341452361 1093.2150000000001 417.42400000000004 L 1093.1680000000001 417.54300000000006 C 1092.623 418.9820000000001 1092.1680000000001 420.3430000000001 1091.787 421.54300000000006 C 1091.0807375022614 420.19941628792634 1090.519573047234 418.78443709756175 1090.113 417.32200000000006 M 1089.3600000000001 410.25300000000004 C 1089.39 409.72800000000007 1089.4450000000002 409.208 1089.5120000000002 408.69100000000003 C 1090.8306443482388 409.27626387976176 1092.259369947911 409.57223853859597 1093.7020000000002 409.559 C 1094.8672166170913 409.55119474462583 1096.026640437646 409.39425244775657 1097.1520000000003 409.09200000000004 C 1096.0088692372292 411.0476339163266 1094.9963263578256 413.07672842292425 1094.1210000000003 415.16600000000005 C 1092.8079221477763 415.4701068949553 1091.4436376627032 415.4783048988716 1090.1270000000004 415.19000000000005 C 1089.9550000000004 415.12100000000004 1089.7790000000005 415.0590000000001 1089.6030000000005 415.00000000000006 C 1089.3497795733465 413.43153037530266 1089.268298264023 411.84012998827086 1089.3600000000006 410.2540000000001 M 1092.0490000000007 400.9600000000001 C 1093.1311042364932 401.38947512009935 1094.2847841882106 401.6100315814571 1095.4490000000008 401.61000000000007 C 1098.0810799946041 401.5048326643267 1100.6246049671424 400.63045249675787 1102.7650000000008 399.0950000000001 C 1102.805134660119 399.0741906629863 1102.8438821211016 399.05080857446234 1102.8810000000008 399.0250000000001 C 1105.4620064012893 397.29256387406963 1108.5014802560995 396.3701711324736 1111.6100000000008 396.3760000000001 C 1108.1932414738153 397.85928547135967 1105.0459327992107 399.8985819982266 1102.2960000000007 402.4110000000001 C 1101.1047872133652 403.564674281991 1100.0200593754928 404.82344052643344 1099.0550000000007 406.17200000000014 L 1098.7830000000008 406.2880000000001 C 1098.7620000000009 406.29700000000014 1098.741000000001 406.30700000000013 1098.7200000000007 406.3180000000001 C 1098.6730000000007 406.3420000000001 1093.9450000000006 408.7000000000001 1089.9710000000007 406.5940000000001 C 1089.9460000000006 406.58100000000013 1089.9190000000008 406.5730000000001 1089.8930000000007 406.5620000000001 C 1090.3451803592989 404.6035150998349 1091.0706217103266 402.7183774823153 1092.0480000000007 400.9620000000001 M 1096.5700000000006 395.3250000000001 C 1100.5237357839162 391.77953716019175 1105.6494187654853 389.82223153241404 1110.9600000000007 389.8300000000001 Q 1111.5910000000008 389.8300000000001 1112.2270000000008 389.8660000000001 C 1115.6247811930525 390.0550199650839 1118.9295559976076 391.0456985175485 1121.8710000000008 392.7570000000001 C 1120.6480000000008 393.0820000000001 1119.2710000000009 393.48200000000014 1117.8070000000007 393.96500000000015 C 1117.0450000000008 394.2160000000001 1116.3070000000007 394.47600000000017 1115.5830000000008 394.74300000000017 C 1110.8289672329004 393.6732260874985 1105.8443164986895 394.5794277956945 1101.7710000000009 397.2540000000002 C 1101.7460000000008 397.2680000000002 1101.721000000001 397.2830000000002 1101.6970000000008 397.2990000000002 C 1098.5760000000007 399.3630000000002 1095.7170000000008 399.9800000000002 1093.1820000000007 399.1480000000002 C 1094.1574584243817 397.74577930331833 1095.2942470809683 396.4629903321126 1096.5690000000006 395.3260000000002 M 1130.9940000000006 398.6880000000002 C 1131.3780000000006 397.26400000000024 1131.5630000000006 396.39400000000023 1131.5670000000007 396.3750000000002 C 1131.9353350815556 395.05820011041766 1131.6174927681277 393.6444405058914 1130.7210000000007 392.61200000000025 C 1129.9850074132496 391.87286043067286 1128.9721195047716 391.477286148967 1127.9300000000007 391.5220000000003 C 1127.618370641417 391.5230707410292 1127.3073448363693 391.54949121264076 1127.0000000000007 391.6010000000003 C 1126.9800000000007 391.6010000000003 1126.1060000000007 391.75100000000026 1124.6740000000007 392.0710000000003 C 1115.3836912216723 385.53838725101934 1102.7694285077 386.49317299579366 1094.5682501560484 394.3497333226311 C 1086.3670718043968 402.2062936494685 1084.8719804968932 414.76797911033555 1091 424.33 C 1090.616 425.752 1090.432 426.621 1090.428 426.639 C 1090.0598514287642 427.9558046969295 1090.3776737376547 429.3694753214627 1091.2740000000001 430.402 C 1092.0099925867512 431.1411395693274 1093.0228804952292 431.53671385103326 1094.065 431.49199999999996 C 1094.3769611942366 431.4909348939779 1094.6883196947658 431.46451457008766 1094.996 431.41299999999995 C 1095.016 431.41299999999995 1095.8960000000002 431.263 1097.3300000000002 430.941 C 1106.6142884802546 437.47773765333665 1119.226338551921 436.5305313271194 1127.4301246265843 428.68038191616597 C 1135.633910701248 420.83023250521256 1137.135566133605 408.27212604774394 1131.0140000000001 398.70899999999995" stroke-linecap="round" />
</g>
		<g transform="matrix(1 0 0 1 37.82 1.46)"  >
<path style="stroke: none; stroke-width: 1; stroke-dasharray: none; stroke-linecap: butt; stroke-dashoffset: 0; stroke-linejoin: miter; stroke-miterlimit: 4; fill: rgb(255,255,255); fill-rule: nonzero; opacity: 1;" vector-effect="non-scaling-stroke"  transform=" translate(-1379.97, -443.64)" d="M 1383.767 445.728 C 1383.767 449.188 1382.535 450.64300000000003 1379.967 450.64300000000003 C 1377.3990000000001 450.64300000000003 1376.1670000000001 449.18800000000005 1376.1670000000001 445.728 L 1376.1670000000001 441.546 C 1376.1670000000001 438.086 1377.3990000000001 436.631 1379.967 436.631 C 1382.535 436.631 1383.767 438.08599999999996 1383.767 441.546 Z M 1379.967 433.367 C 1375.642 433.367 1372.496 435.778 1372.496 441.546 L 1372.496 445.728 C 1372.496 451.495 1375.642 453.906 1379.967 453.906 C 1384.2920000000001 453.906 1387.438 451.495 1387.438 445.728 L 1387.438 441.546 C 1387.438 435.778 1384.2920000000001 433.367 1379.967 433.367" stroke-linecap="round" />
</g>
		<g transform="matrix(1 0 0 1 4.27 1.49)"  >
<path style="stroke: none; stroke-width: 1; stroke-dasharray: none; stroke-linecap: butt; stroke-dashoffset: 0; stroke-linejoin: miter; stroke-miterlimit: 4; fill: rgb(255,255,255); fill-rule: nonzero; opacity: 1;" vector-effect="non-scaling-stroke"  transform=" translate(-1279.3, -444.61)" d="M 1282.654 441.06 C 1282.654 443.16 1281.393 444.196 1278.654 444.196 C 1278.534 444.196 1278.336 444.202 1278.1009999999999 444.196 L 1276.2289999999998 444.196 L 1276.2289999999998 437.875 L 1278.6539999999998 437.875 C 1281.1469999999997 437.875 1282.6539999999998 438.714 1282.6539999999998 440.916 Z M 1278.654 434.769 L 1273.2 434.769 C 1272.9110582221062 434.770096565067 1272.6770965650671 435.00405822210627 1272.6760000000002 435.293 L 1272.6760000000002 453.932 C 1272.6770965650671 454.22094177789376 1272.9110582221062 454.45490343493304 1273.2 454.456 L 1275.73 454.456 C 1275.8668732014453 454.45615777333 1275.9978270963488 454.4001977384488 1276.0923168049637 454.3011725238204 C 1276.1868065135786 454.202147309192 1276.2365700089665 454.06871551904777 1276.23 453.932 L 1276.23 447.28700000000003 L 1278.655 447.28700000000003 C 1282.791 447.28700000000003 1285.9289999999999 445.701 1285.9289999999999 441.06100000000004 L 1285.9289999999999 440.826 C 1285.9289999999999 436.18600000000004 1282.523 434.77000000000004 1278.655 434.77000000000004" stroke-linecap="round" />
</g>
		<g transform="matrix(1 0 0 1 20.99 1.5)"  >
<path style="stroke: none; stroke-width: 1; stroke-dasharray: none; stroke-linecap: butt; stroke-dashoffset: 0; stroke-linejoin: miter; stroke-miterlimit: 4; fill: rgb(255,255,255); fill-rule: nonzero; opacity: 1;" vector-effect="non-scaling-stroke"  transform=" translate(-1329.41, -444.62)" d="M 1325.879 437.875 L 1328.3039999999999 437.875 C 1330.7969999999998 437.875 1332.204 438.714 1332.204 440.916 L 1332.204 441.06 C 1332.204 443.16 1331.0349999999999 444.104 1328.3039999999999 444.104 L 1325.879 444.104 Z M 1332.367 446.375 C 1334.328 445.591 1335.579 443.99 1335.579 441.062 L 1335.579 440.827 C 1335.579 436.187 1332.173 434.771 1328.305 434.771 L 1322.852 434.771 C 1322.5630582221063 434.772096565067 1322.3290965650672 435.0060582221063 1322.3280000000002 435.295 L 1322.3280000000002 453.934 C 1322.3290965650672 454.22294177789377 1322.5630582221063 454.45690343493305 1322.852 454.458 L 1325.382 454.458 C 1325.5188732014453 454.45815777333 1325.6498270963489 454.4021977384488 1325.7443168049638 454.3031725238204 C 1325.8388065135787 454.204147309192 1325.8885700089666 454.0707155190478 1325.882 453.934 L 1325.882 447.01300000000003 L 1328.307 447.01300000000003 Q 1328.512 447.01300000000003 1328.714 447.01300000000003 L 1332.4489999999998 453.939 C 1332.58 454.201 1332.685 454.463 1332.9729999999997 454.463 L 1336.1729999999998 454.463 C 1336.2586898283462 454.47076879724654 1336.3434051381187 454.44008587523604 1336.4042455066772 454.3792455066775 C 1336.465085875236 454.31840513811886 1336.4957687972462 454.23368982834637 1336.4879999999998 454.148 C 1336.4928359651487 454.0744855192447 1336.4742836174275 454.00132626125014 1336.4349999999997 453.939 Z" stroke-linecap="round" />
</g>
		<g transform="matrix(1 0 0 1 55.13 1.45)"  >
<path style="stroke: none; stroke-width: 1; stroke-dasharray: none; stroke-linecap: butt; stroke-dashoffset: 0; stroke-linejoin: miter; stroke-miterlimit: 4; fill: rgb(255,255,255); fill-rule: nonzero; opacity: 1;" vector-effect="non-scaling-stroke"  transform=" translate(-1431.8, -444.38)" d="M 1429.585 445.852 L 1431.385 438.25199999999995 C 1431.464 437.93699999999995 1431.542 437.83299999999997 1431.804 437.83299999999997 C 1432.0660000000003 437.83299999999997 1432.145 437.933 1432.2230000000002 438.25199999999995 L 1434.0230000000001 445.852 Z M 1439.743 453.69 L 1435.443 437.162 C 1434.9430671854473 435.570342260872 1433.4678246619267 434.4874075978426 1431.7995 434.4874075978426 C 1430.1311753380733 434.4874075978426 1428.6559328145527 435.570342260872 1428.156 437.162 L 1423.856 453.69 C 1423.8499305895973 453.7341422458671 1423.8412486824218 453.77788570125125 1423.83 453.82099999999997 C 1423.8303716869261 453.9437469908436 1423.8810914673893 454.0609652249008 1423.9703095824113 454.14526878273944 C 1424.0595276974334 454.22957234057804 1424.1794287396335 454.27357632454584 1424.302 454.267 L 1427.081 454.267 C 1427.3288677365272 454.2473817193095 1427.5333032624349 454.0650252301998 1427.581 453.82099999999997 L 1428.788 448.84 L 1434.817 448.84 L 1436.023 453.82099999999997 C 1436.0710082742548 454.0648476563646 1436.275273232808 454.2470519993942 1436.523 454.267 L 1439.302 454.267 C 1439.4245712603663 454.27357632454584 1439.5444723025664 454.22957234057804 1439.6336904175885 454.14526878273944 C 1439.7229085326105 454.0609652249008 1439.7736283130737 453.9437469908436 1439.774 453.82099999999997 C 1439.762751317578 453.77788570125125 1439.7540694104025 453.7341422458671 1439.7479999999998 453.69" stroke-linecap="round" />
</g>
</g>
</g>
<g transform="matrix(0.76 0 0 0.74 619.19 540)" style="" id="55d09e5d-2d83-448d-bee8-0f354bb79d36"  >
		<text xml:space="preserve" font-family="Raleway" font-size="105" font-style="normal" font-weight="400" style="stroke: none; stroke-width: 1; stroke-dasharray: none; stroke-linecap: butt; stroke-dashoffset: 0; stroke-linejoin: miter; stroke-miterlimit: 4; fill: rgb(255,255,255); fill-rule: nonzero; opacity: 1; white-space: pre;" ><tspan x="-21.79" y="32.98" >+</tspan></text>
</g>
</svg>